<mxfile host="app.diagrams.net" agent="Mozilla/5.0 (Windows NT 10.0; Win64; x64) AppleWebKit/537.36 (KHTML, like Gecko) Chrome/131.0.0.0 Safari/537.36" version="24.9.0">
  <diagram name="หน้า-1" id="Oa7MNRSbtnNq7vkGmx9L">
    <mxGraphModel dx="1050" dy="530" grid="1" gridSize="10" guides="1" tooltips="1" connect="1" arrows="1" fold="1" page="1" pageScale="1" pageWidth="827" pageHeight="1169" math="0" shadow="0">
      <root>
        <mxCell id="0" />
        <mxCell id="1" parent="0" />
        <mxCell id="7Do3n61sv4SYis1TwfqJ-3" value="" style="edgeStyle=orthogonalEdgeStyle;rounded=0;orthogonalLoop=1;jettySize=auto;html=1;" parent="1" source="7Do3n61sv4SYis1TwfqJ-1" target="7Do3n61sv4SYis1TwfqJ-2" edge="1">
          <mxGeometry relative="1" as="geometry" />
        </mxCell>
        <mxCell id="7Do3n61sv4SYis1TwfqJ-1" value="Start" style="ellipse;whiteSpace=wrap;html=1;" parent="1" vertex="1">
          <mxGeometry x="354" y="10" width="120" height="80" as="geometry" />
        </mxCell>
        <mxCell id="7Do3n61sv4SYis1TwfqJ-5" value="" style="edgeStyle=orthogonalEdgeStyle;rounded=0;orthogonalLoop=1;jettySize=auto;html=1;" parent="1" source="7Do3n61sv4SYis1TwfqJ-2" target="7Do3n61sv4SYis1TwfqJ-4" edge="1">
          <mxGeometry relative="1" as="geometry" />
        </mxCell>
        <mxCell id="7Do3n61sv4SYis1TwfqJ-2" value="Input a" style="shape=parallelogram;perimeter=parallelogramPerimeter;whiteSpace=wrap;html=1;fixedSize=1;" parent="1" vertex="1">
          <mxGeometry x="354" y="180" width="120" height="60" as="geometry" />
        </mxCell>
        <mxCell id="7Do3n61sv4SYis1TwfqJ-7" value="f" style="edgeStyle=orthogonalEdgeStyle;rounded=0;orthogonalLoop=1;jettySize=auto;html=1;" parent="1" source="7Do3n61sv4SYis1TwfqJ-4" target="7Do3n61sv4SYis1TwfqJ-6" edge="1">
          <mxGeometry relative="1" as="geometry" />
        </mxCell>
        <mxCell id="7Do3n61sv4SYis1TwfqJ-69" value="t" style="edgeStyle=orthogonalEdgeStyle;rounded=0;orthogonalLoop=1;jettySize=auto;html=1;" parent="1" source="7Do3n61sv4SYis1TwfqJ-4" target="7Do3n61sv4SYis1TwfqJ-68" edge="1">
          <mxGeometry relative="1" as="geometry" />
        </mxCell>
        <mxCell id="7Do3n61sv4SYis1TwfqJ-4" value="a = 0" style="rhombus;whiteSpace=wrap;html=1;" parent="1" vertex="1">
          <mxGeometry x="374" y="310" width="80" height="80" as="geometry" />
        </mxCell>
        <mxCell id="7Do3n61sv4SYis1TwfqJ-9" value="f" style="edgeStyle=orthogonalEdgeStyle;rounded=0;orthogonalLoop=1;jettySize=auto;html=1;" parent="1" source="7Do3n61sv4SYis1TwfqJ-6" target="7Do3n61sv4SYis1TwfqJ-8" edge="1">
          <mxGeometry relative="1" as="geometry" />
        </mxCell>
        <mxCell id="7Do3n61sv4SYis1TwfqJ-73" value="t" style="edgeStyle=orthogonalEdgeStyle;rounded=0;orthogonalLoop=1;jettySize=auto;html=1;" parent="1" source="7Do3n61sv4SYis1TwfqJ-6" target="7Do3n61sv4SYis1TwfqJ-72" edge="1">
          <mxGeometry relative="1" as="geometry" />
        </mxCell>
        <mxCell id="7Do3n61sv4SYis1TwfqJ-6" value="a = 1" style="rhombus;whiteSpace=wrap;html=1;" parent="1" vertex="1">
          <mxGeometry x="534" y="310" width="80" height="80" as="geometry" />
        </mxCell>
        <mxCell id="7Do3n61sv4SYis1TwfqJ-11" value="f" style="edgeStyle=orthogonalEdgeStyle;rounded=0;orthogonalLoop=1;jettySize=auto;html=1;" parent="1" source="7Do3n61sv4SYis1TwfqJ-8" target="7Do3n61sv4SYis1TwfqJ-10" edge="1">
          <mxGeometry relative="1" as="geometry" />
        </mxCell>
        <mxCell id="7Do3n61sv4SYis1TwfqJ-75" value="t" style="edgeStyle=orthogonalEdgeStyle;rounded=0;orthogonalLoop=1;jettySize=auto;html=1;" parent="1" source="7Do3n61sv4SYis1TwfqJ-8" target="7Do3n61sv4SYis1TwfqJ-74" edge="1">
          <mxGeometry relative="1" as="geometry" />
        </mxCell>
        <mxCell id="7Do3n61sv4SYis1TwfqJ-8" value="a = 2" style="rhombus;whiteSpace=wrap;html=1;" parent="1" vertex="1">
          <mxGeometry x="694" y="310" width="80" height="80" as="geometry" />
        </mxCell>
        <mxCell id="7Do3n61sv4SYis1TwfqJ-13" value="f" style="edgeStyle=orthogonalEdgeStyle;rounded=0;orthogonalLoop=1;jettySize=auto;html=1;" parent="1" source="7Do3n61sv4SYis1TwfqJ-10" target="7Do3n61sv4SYis1TwfqJ-12" edge="1">
          <mxGeometry relative="1" as="geometry" />
        </mxCell>
        <mxCell id="7Do3n61sv4SYis1TwfqJ-77" value="t" style="edgeStyle=orthogonalEdgeStyle;rounded=0;orthogonalLoop=1;jettySize=auto;html=1;" parent="1" source="7Do3n61sv4SYis1TwfqJ-10" target="7Do3n61sv4SYis1TwfqJ-76" edge="1">
          <mxGeometry relative="1" as="geometry" />
        </mxCell>
        <mxCell id="7Do3n61sv4SYis1TwfqJ-10" value="a = 3" style="rhombus;whiteSpace=wrap;html=1;" parent="1" vertex="1">
          <mxGeometry x="854" y="310" width="80" height="80" as="geometry" />
        </mxCell>
        <mxCell id="7Do3n61sv4SYis1TwfqJ-15" value="f" style="edgeStyle=orthogonalEdgeStyle;rounded=0;orthogonalLoop=1;jettySize=auto;html=1;" parent="1" source="7Do3n61sv4SYis1TwfqJ-12" target="7Do3n61sv4SYis1TwfqJ-14" edge="1">
          <mxGeometry relative="1" as="geometry" />
        </mxCell>
        <mxCell id="7Do3n61sv4SYis1TwfqJ-79" value="t" style="edgeStyle=orthogonalEdgeStyle;rounded=0;orthogonalLoop=1;jettySize=auto;html=1;" parent="1" source="7Do3n61sv4SYis1TwfqJ-12" target="7Do3n61sv4SYis1TwfqJ-78" edge="1">
          <mxGeometry relative="1" as="geometry" />
        </mxCell>
        <mxCell id="7Do3n61sv4SYis1TwfqJ-12" value="a = 4" style="rhombus;whiteSpace=wrap;html=1;" parent="1" vertex="1">
          <mxGeometry x="1014" y="310" width="80" height="80" as="geometry" />
        </mxCell>
        <mxCell id="7Do3n61sv4SYis1TwfqJ-17" value="f" style="edgeStyle=orthogonalEdgeStyle;rounded=0;orthogonalLoop=1;jettySize=auto;html=1;" parent="1" source="7Do3n61sv4SYis1TwfqJ-14" target="7Do3n61sv4SYis1TwfqJ-16" edge="1">
          <mxGeometry relative="1" as="geometry" />
        </mxCell>
        <mxCell id="7Do3n61sv4SYis1TwfqJ-81" value="t" style="edgeStyle=orthogonalEdgeStyle;rounded=0;orthogonalLoop=1;jettySize=auto;html=1;" parent="1" source="7Do3n61sv4SYis1TwfqJ-14" target="7Do3n61sv4SYis1TwfqJ-80" edge="1">
          <mxGeometry relative="1" as="geometry" />
        </mxCell>
        <mxCell id="7Do3n61sv4SYis1TwfqJ-14" value="a = 5" style="rhombus;whiteSpace=wrap;html=1;" parent="1" vertex="1">
          <mxGeometry x="1174" y="310" width="80" height="80" as="geometry" />
        </mxCell>
        <mxCell id="7Do3n61sv4SYis1TwfqJ-19" value="f" style="edgeStyle=orthogonalEdgeStyle;rounded=0;orthogonalLoop=1;jettySize=auto;html=1;" parent="1" source="7Do3n61sv4SYis1TwfqJ-16" target="7Do3n61sv4SYis1TwfqJ-18" edge="1">
          <mxGeometry relative="1" as="geometry" />
        </mxCell>
        <mxCell id="7Do3n61sv4SYis1TwfqJ-83" value="t" style="edgeStyle=orthogonalEdgeStyle;rounded=0;orthogonalLoop=1;jettySize=auto;html=1;" parent="1" source="7Do3n61sv4SYis1TwfqJ-16" target="7Do3n61sv4SYis1TwfqJ-82" edge="1">
          <mxGeometry relative="1" as="geometry" />
        </mxCell>
        <mxCell id="7Do3n61sv4SYis1TwfqJ-16" value="a = 6" style="rhombus;whiteSpace=wrap;html=1;" parent="1" vertex="1">
          <mxGeometry x="1334" y="310" width="80" height="80" as="geometry" />
        </mxCell>
        <mxCell id="7Do3n61sv4SYis1TwfqJ-21" value="f" style="edgeStyle=orthogonalEdgeStyle;rounded=0;orthogonalLoop=1;jettySize=auto;html=1;" parent="1" source="7Do3n61sv4SYis1TwfqJ-18" target="7Do3n61sv4SYis1TwfqJ-20" edge="1">
          <mxGeometry relative="1" as="geometry" />
        </mxCell>
        <mxCell id="7Do3n61sv4SYis1TwfqJ-85" value="t" style="edgeStyle=orthogonalEdgeStyle;rounded=0;orthogonalLoop=1;jettySize=auto;html=1;" parent="1" source="7Do3n61sv4SYis1TwfqJ-18" target="7Do3n61sv4SYis1TwfqJ-84" edge="1">
          <mxGeometry relative="1" as="geometry" />
        </mxCell>
        <mxCell id="7Do3n61sv4SYis1TwfqJ-18" value="a = 7" style="rhombus;whiteSpace=wrap;html=1;" parent="1" vertex="1">
          <mxGeometry x="1494" y="310" width="80" height="80" as="geometry" />
        </mxCell>
        <mxCell id="7Do3n61sv4SYis1TwfqJ-23" value="f" style="edgeStyle=orthogonalEdgeStyle;rounded=0;orthogonalLoop=1;jettySize=auto;html=1;" parent="1" source="7Do3n61sv4SYis1TwfqJ-20" target="7Do3n61sv4SYis1TwfqJ-22" edge="1">
          <mxGeometry relative="1" as="geometry" />
        </mxCell>
        <mxCell id="7Do3n61sv4SYis1TwfqJ-87" value="t" style="edgeStyle=orthogonalEdgeStyle;rounded=0;orthogonalLoop=1;jettySize=auto;html=1;" parent="1" source="7Do3n61sv4SYis1TwfqJ-20" target="7Do3n61sv4SYis1TwfqJ-86" edge="1">
          <mxGeometry relative="1" as="geometry" />
        </mxCell>
        <mxCell id="7Do3n61sv4SYis1TwfqJ-20" value="a = 8" style="rhombus;whiteSpace=wrap;html=1;" parent="1" vertex="1">
          <mxGeometry x="1654" y="310" width="80" height="80" as="geometry" />
        </mxCell>
        <mxCell id="7Do3n61sv4SYis1TwfqJ-25" value="f" style="edgeStyle=orthogonalEdgeStyle;rounded=0;orthogonalLoop=1;jettySize=auto;html=1;" parent="1" source="7Do3n61sv4SYis1TwfqJ-22" target="7Do3n61sv4SYis1TwfqJ-24" edge="1">
          <mxGeometry relative="1" as="geometry" />
        </mxCell>
        <mxCell id="7Do3n61sv4SYis1TwfqJ-89" value="t" style="edgeStyle=orthogonalEdgeStyle;rounded=0;orthogonalLoop=1;jettySize=auto;html=1;" parent="1" source="7Do3n61sv4SYis1TwfqJ-22" target="7Do3n61sv4SYis1TwfqJ-88" edge="1">
          <mxGeometry relative="1" as="geometry" />
        </mxCell>
        <mxCell id="7Do3n61sv4SYis1TwfqJ-22" value="a = 9" style="rhombus;whiteSpace=wrap;html=1;" parent="1" vertex="1">
          <mxGeometry x="1814" y="310" width="80" height="80" as="geometry" />
        </mxCell>
        <mxCell id="7Do3n61sv4SYis1TwfqJ-27" value="f" style="edgeStyle=orthogonalEdgeStyle;rounded=0;orthogonalLoop=1;jettySize=auto;html=1;" parent="1" source="7Do3n61sv4SYis1TwfqJ-24" target="7Do3n61sv4SYis1TwfqJ-26" edge="1">
          <mxGeometry relative="1" as="geometry" />
        </mxCell>
        <mxCell id="7Do3n61sv4SYis1TwfqJ-91" value="t" style="edgeStyle=orthogonalEdgeStyle;rounded=0;orthogonalLoop=1;jettySize=auto;html=1;" parent="1" source="7Do3n61sv4SYis1TwfqJ-24" target="7Do3n61sv4SYis1TwfqJ-90" edge="1">
          <mxGeometry relative="1" as="geometry" />
        </mxCell>
        <mxCell id="7Do3n61sv4SYis1TwfqJ-24" value="a = 10" style="rhombus;whiteSpace=wrap;html=1;" parent="1" vertex="1">
          <mxGeometry x="1974" y="310" width="80" height="80" as="geometry" />
        </mxCell>
        <mxCell id="7Do3n61sv4SYis1TwfqJ-29" value="f" style="edgeStyle=orthogonalEdgeStyle;rounded=0;orthogonalLoop=1;jettySize=auto;html=1;" parent="1" source="7Do3n61sv4SYis1TwfqJ-26" target="7Do3n61sv4SYis1TwfqJ-28" edge="1">
          <mxGeometry relative="1" as="geometry" />
        </mxCell>
        <mxCell id="7Do3n61sv4SYis1TwfqJ-93" value="t" style="edgeStyle=orthogonalEdgeStyle;rounded=0;orthogonalLoop=1;jettySize=auto;html=1;" parent="1" source="7Do3n61sv4SYis1TwfqJ-26" target="7Do3n61sv4SYis1TwfqJ-92" edge="1">
          <mxGeometry relative="1" as="geometry" />
        </mxCell>
        <mxCell id="7Do3n61sv4SYis1TwfqJ-26" value="a = 11" style="rhombus;whiteSpace=wrap;html=1;" parent="1" vertex="1">
          <mxGeometry x="2134" y="310" width="80" height="80" as="geometry" />
        </mxCell>
        <mxCell id="7Do3n61sv4SYis1TwfqJ-31" value="f" style="edgeStyle=orthogonalEdgeStyle;rounded=0;orthogonalLoop=1;jettySize=auto;html=1;" parent="1" source="7Do3n61sv4SYis1TwfqJ-28" target="7Do3n61sv4SYis1TwfqJ-30" edge="1">
          <mxGeometry relative="1" as="geometry" />
        </mxCell>
        <mxCell id="7Do3n61sv4SYis1TwfqJ-95" value="t" style="edgeStyle=orthogonalEdgeStyle;rounded=0;orthogonalLoop=1;jettySize=auto;html=1;" parent="1" source="7Do3n61sv4SYis1TwfqJ-28" target="7Do3n61sv4SYis1TwfqJ-94" edge="1">
          <mxGeometry relative="1" as="geometry" />
        </mxCell>
        <mxCell id="7Do3n61sv4SYis1TwfqJ-28" value="a = 12" style="rhombus;whiteSpace=wrap;html=1;" parent="1" vertex="1">
          <mxGeometry x="2294" y="310" width="80" height="80" as="geometry" />
        </mxCell>
        <mxCell id="7Do3n61sv4SYis1TwfqJ-33" value="f" style="edgeStyle=orthogonalEdgeStyle;rounded=0;orthogonalLoop=1;jettySize=auto;html=1;" parent="1" source="7Do3n61sv4SYis1TwfqJ-30" target="7Do3n61sv4SYis1TwfqJ-32" edge="1">
          <mxGeometry relative="1" as="geometry" />
        </mxCell>
        <mxCell id="7Do3n61sv4SYis1TwfqJ-97" value="t" style="edgeStyle=orthogonalEdgeStyle;rounded=0;orthogonalLoop=1;jettySize=auto;html=1;" parent="1" source="7Do3n61sv4SYis1TwfqJ-30" target="7Do3n61sv4SYis1TwfqJ-96" edge="1">
          <mxGeometry relative="1" as="geometry" />
        </mxCell>
        <mxCell id="7Do3n61sv4SYis1TwfqJ-30" value="a = 13" style="rhombus;whiteSpace=wrap;html=1;" parent="1" vertex="1">
          <mxGeometry x="2454" y="310" width="80" height="80" as="geometry" />
        </mxCell>
        <mxCell id="7Do3n61sv4SYis1TwfqJ-35" value="f" style="edgeStyle=orthogonalEdgeStyle;rounded=0;orthogonalLoop=1;jettySize=auto;html=1;" parent="1" source="7Do3n61sv4SYis1TwfqJ-32" target="7Do3n61sv4SYis1TwfqJ-34" edge="1">
          <mxGeometry relative="1" as="geometry" />
        </mxCell>
        <mxCell id="7Do3n61sv4SYis1TwfqJ-99" value="t" style="edgeStyle=orthogonalEdgeStyle;rounded=0;orthogonalLoop=1;jettySize=auto;html=1;" parent="1" source="7Do3n61sv4SYis1TwfqJ-32" target="7Do3n61sv4SYis1TwfqJ-98" edge="1">
          <mxGeometry relative="1" as="geometry" />
        </mxCell>
        <mxCell id="7Do3n61sv4SYis1TwfqJ-32" value="a = 14" style="rhombus;whiteSpace=wrap;html=1;" parent="1" vertex="1">
          <mxGeometry x="2614" y="310" width="80" height="80" as="geometry" />
        </mxCell>
        <mxCell id="7Do3n61sv4SYis1TwfqJ-37" value="f" style="edgeStyle=orthogonalEdgeStyle;rounded=0;orthogonalLoop=1;jettySize=auto;html=1;" parent="1" source="7Do3n61sv4SYis1TwfqJ-34" target="7Do3n61sv4SYis1TwfqJ-36" edge="1">
          <mxGeometry relative="1" as="geometry" />
        </mxCell>
        <mxCell id="7Do3n61sv4SYis1TwfqJ-101" value="t" style="edgeStyle=orthogonalEdgeStyle;rounded=0;orthogonalLoop=1;jettySize=auto;html=1;" parent="1" source="7Do3n61sv4SYis1TwfqJ-34" target="7Do3n61sv4SYis1TwfqJ-100" edge="1">
          <mxGeometry relative="1" as="geometry" />
        </mxCell>
        <mxCell id="7Do3n61sv4SYis1TwfqJ-34" value="a = 15" style="rhombus;whiteSpace=wrap;html=1;" parent="1" vertex="1">
          <mxGeometry x="2774" y="310" width="80" height="80" as="geometry" />
        </mxCell>
        <mxCell id="7Do3n61sv4SYis1TwfqJ-39" value="f" style="edgeStyle=orthogonalEdgeStyle;rounded=0;orthogonalLoop=1;jettySize=auto;html=1;" parent="1" source="7Do3n61sv4SYis1TwfqJ-36" target="7Do3n61sv4SYis1TwfqJ-38" edge="1">
          <mxGeometry relative="1" as="geometry" />
        </mxCell>
        <mxCell id="7Do3n61sv4SYis1TwfqJ-103" value="t" style="edgeStyle=orthogonalEdgeStyle;rounded=0;orthogonalLoop=1;jettySize=auto;html=1;" parent="1" source="7Do3n61sv4SYis1TwfqJ-36" target="7Do3n61sv4SYis1TwfqJ-102" edge="1">
          <mxGeometry relative="1" as="geometry">
            <Array as="points">
              <mxPoint x="2974" y="410" />
              <mxPoint x="2974" y="410" />
            </Array>
          </mxGeometry>
        </mxCell>
        <mxCell id="7Do3n61sv4SYis1TwfqJ-36" value="a = 16" style="rhombus;whiteSpace=wrap;html=1;" parent="1" vertex="1">
          <mxGeometry x="2934" y="310" width="80" height="80" as="geometry" />
        </mxCell>
        <mxCell id="7Do3n61sv4SYis1TwfqJ-41" value="f" style="edgeStyle=orthogonalEdgeStyle;rounded=0;orthogonalLoop=1;jettySize=auto;html=1;" parent="1" source="7Do3n61sv4SYis1TwfqJ-38" target="7Do3n61sv4SYis1TwfqJ-40" edge="1">
          <mxGeometry relative="1" as="geometry" />
        </mxCell>
        <mxCell id="7Do3n61sv4SYis1TwfqJ-105" value="t" style="edgeStyle=orthogonalEdgeStyle;rounded=0;orthogonalLoop=1;jettySize=auto;html=1;" parent="1" source="7Do3n61sv4SYis1TwfqJ-38" target="7Do3n61sv4SYis1TwfqJ-104" edge="1">
          <mxGeometry relative="1" as="geometry" />
        </mxCell>
        <mxCell id="7Do3n61sv4SYis1TwfqJ-38" value="a = 17" style="rhombus;whiteSpace=wrap;html=1;" parent="1" vertex="1">
          <mxGeometry x="3094" y="310" width="80" height="80" as="geometry" />
        </mxCell>
        <mxCell id="7Do3n61sv4SYis1TwfqJ-43" value="f" style="edgeStyle=orthogonalEdgeStyle;rounded=0;orthogonalLoop=1;jettySize=auto;html=1;" parent="1" source="7Do3n61sv4SYis1TwfqJ-40" target="7Do3n61sv4SYis1TwfqJ-42" edge="1">
          <mxGeometry relative="1" as="geometry" />
        </mxCell>
        <mxCell id="7Do3n61sv4SYis1TwfqJ-107" value="t" style="edgeStyle=orthogonalEdgeStyle;rounded=0;orthogonalLoop=1;jettySize=auto;html=1;" parent="1" source="7Do3n61sv4SYis1TwfqJ-40" target="7Do3n61sv4SYis1TwfqJ-106" edge="1">
          <mxGeometry relative="1" as="geometry" />
        </mxCell>
        <mxCell id="7Do3n61sv4SYis1TwfqJ-40" value="a = 18" style="rhombus;whiteSpace=wrap;html=1;" parent="1" vertex="1">
          <mxGeometry x="3254" y="310" width="80" height="80" as="geometry" />
        </mxCell>
        <mxCell id="7Do3n61sv4SYis1TwfqJ-45" value="f" style="edgeStyle=orthogonalEdgeStyle;rounded=0;orthogonalLoop=1;jettySize=auto;html=1;" parent="1" source="7Do3n61sv4SYis1TwfqJ-42" target="7Do3n61sv4SYis1TwfqJ-44" edge="1">
          <mxGeometry relative="1" as="geometry" />
        </mxCell>
        <mxCell id="7Do3n61sv4SYis1TwfqJ-109" value="t" style="edgeStyle=orthogonalEdgeStyle;rounded=0;orthogonalLoop=1;jettySize=auto;html=1;" parent="1" source="7Do3n61sv4SYis1TwfqJ-42" target="7Do3n61sv4SYis1TwfqJ-108" edge="1">
          <mxGeometry relative="1" as="geometry" />
        </mxCell>
        <mxCell id="7Do3n61sv4SYis1TwfqJ-42" value="a = 19" style="rhombus;whiteSpace=wrap;html=1;" parent="1" vertex="1">
          <mxGeometry x="3414" y="310" width="80" height="80" as="geometry" />
        </mxCell>
        <mxCell id="7Do3n61sv4SYis1TwfqJ-47" value="f" style="edgeStyle=orthogonalEdgeStyle;rounded=0;orthogonalLoop=1;jettySize=auto;html=1;" parent="1" source="7Do3n61sv4SYis1TwfqJ-44" target="7Do3n61sv4SYis1TwfqJ-46" edge="1">
          <mxGeometry relative="1" as="geometry" />
        </mxCell>
        <mxCell id="7Do3n61sv4SYis1TwfqJ-111" value="t" style="edgeStyle=orthogonalEdgeStyle;rounded=0;orthogonalLoop=1;jettySize=auto;html=1;" parent="1" source="7Do3n61sv4SYis1TwfqJ-44" target="7Do3n61sv4SYis1TwfqJ-110" edge="1">
          <mxGeometry relative="1" as="geometry" />
        </mxCell>
        <mxCell id="7Do3n61sv4SYis1TwfqJ-44" value="a = 20" style="rhombus;whiteSpace=wrap;html=1;" parent="1" vertex="1">
          <mxGeometry x="3574" y="310" width="80" height="80" as="geometry" />
        </mxCell>
        <mxCell id="7Do3n61sv4SYis1TwfqJ-49" value="f" style="edgeStyle=orthogonalEdgeStyle;rounded=0;orthogonalLoop=1;jettySize=auto;html=1;" parent="1" source="7Do3n61sv4SYis1TwfqJ-46" target="7Do3n61sv4SYis1TwfqJ-48" edge="1">
          <mxGeometry relative="1" as="geometry" />
        </mxCell>
        <mxCell id="7Do3n61sv4SYis1TwfqJ-113" value="t" style="edgeStyle=orthogonalEdgeStyle;rounded=0;orthogonalLoop=1;jettySize=auto;html=1;" parent="1" source="7Do3n61sv4SYis1TwfqJ-46" target="7Do3n61sv4SYis1TwfqJ-112" edge="1">
          <mxGeometry relative="1" as="geometry" />
        </mxCell>
        <mxCell id="7Do3n61sv4SYis1TwfqJ-46" value="a = 21" style="rhombus;whiteSpace=wrap;html=1;" parent="1" vertex="1">
          <mxGeometry x="3734" y="310" width="80" height="80" as="geometry" />
        </mxCell>
        <mxCell id="7Do3n61sv4SYis1TwfqJ-51" value="f" style="edgeStyle=orthogonalEdgeStyle;rounded=0;orthogonalLoop=1;jettySize=auto;html=1;" parent="1" source="7Do3n61sv4SYis1TwfqJ-48" target="7Do3n61sv4SYis1TwfqJ-50" edge="1">
          <mxGeometry relative="1" as="geometry" />
        </mxCell>
        <mxCell id="7Do3n61sv4SYis1TwfqJ-115" value="t" style="edgeStyle=orthogonalEdgeStyle;rounded=0;orthogonalLoop=1;jettySize=auto;html=1;" parent="1" source="7Do3n61sv4SYis1TwfqJ-48" target="7Do3n61sv4SYis1TwfqJ-114" edge="1">
          <mxGeometry relative="1" as="geometry" />
        </mxCell>
        <mxCell id="7Do3n61sv4SYis1TwfqJ-48" value="a = 22" style="rhombus;whiteSpace=wrap;html=1;" parent="1" vertex="1">
          <mxGeometry x="3894" y="310" width="80" height="80" as="geometry" />
        </mxCell>
        <mxCell id="7Do3n61sv4SYis1TwfqJ-53" value="f" style="edgeStyle=orthogonalEdgeStyle;rounded=0;orthogonalLoop=1;jettySize=auto;html=1;" parent="1" source="7Do3n61sv4SYis1TwfqJ-50" target="7Do3n61sv4SYis1TwfqJ-52" edge="1">
          <mxGeometry relative="1" as="geometry" />
        </mxCell>
        <mxCell id="7Do3n61sv4SYis1TwfqJ-117" value="t" style="edgeStyle=orthogonalEdgeStyle;rounded=0;orthogonalLoop=1;jettySize=auto;html=1;" parent="1" source="7Do3n61sv4SYis1TwfqJ-50" target="7Do3n61sv4SYis1TwfqJ-116" edge="1">
          <mxGeometry relative="1" as="geometry" />
        </mxCell>
        <mxCell id="7Do3n61sv4SYis1TwfqJ-50" value="a = 23" style="rhombus;whiteSpace=wrap;html=1;" parent="1" vertex="1">
          <mxGeometry x="4054" y="310" width="80" height="80" as="geometry" />
        </mxCell>
        <mxCell id="7Do3n61sv4SYis1TwfqJ-55" value="f" style="edgeStyle=orthogonalEdgeStyle;rounded=0;orthogonalLoop=1;jettySize=auto;html=1;" parent="1" source="7Do3n61sv4SYis1TwfqJ-52" target="7Do3n61sv4SYis1TwfqJ-54" edge="1">
          <mxGeometry relative="1" as="geometry" />
        </mxCell>
        <mxCell id="7Do3n61sv4SYis1TwfqJ-119" value="t" style="edgeStyle=orthogonalEdgeStyle;rounded=0;orthogonalLoop=1;jettySize=auto;html=1;" parent="1" source="7Do3n61sv4SYis1TwfqJ-52" target="7Do3n61sv4SYis1TwfqJ-118" edge="1">
          <mxGeometry relative="1" as="geometry" />
        </mxCell>
        <mxCell id="7Do3n61sv4SYis1TwfqJ-52" value="a = 24" style="rhombus;whiteSpace=wrap;html=1;" parent="1" vertex="1">
          <mxGeometry x="4214" y="310" width="80" height="80" as="geometry" />
        </mxCell>
        <mxCell id="7Do3n61sv4SYis1TwfqJ-57" value="f" style="edgeStyle=orthogonalEdgeStyle;rounded=0;orthogonalLoop=1;jettySize=auto;html=1;" parent="1" source="7Do3n61sv4SYis1TwfqJ-54" target="7Do3n61sv4SYis1TwfqJ-56" edge="1">
          <mxGeometry relative="1" as="geometry" />
        </mxCell>
        <mxCell id="7Do3n61sv4SYis1TwfqJ-121" value="t" style="edgeStyle=orthogonalEdgeStyle;rounded=0;orthogonalLoop=1;jettySize=auto;html=1;" parent="1" source="7Do3n61sv4SYis1TwfqJ-54" target="7Do3n61sv4SYis1TwfqJ-120" edge="1">
          <mxGeometry relative="1" as="geometry" />
        </mxCell>
        <mxCell id="7Do3n61sv4SYis1TwfqJ-54" value="a = 25" style="rhombus;whiteSpace=wrap;html=1;" parent="1" vertex="1">
          <mxGeometry x="4374" y="310" width="80" height="80" as="geometry" />
        </mxCell>
        <mxCell id="7Do3n61sv4SYis1TwfqJ-59" value="f" style="edgeStyle=orthogonalEdgeStyle;rounded=0;orthogonalLoop=1;jettySize=auto;html=1;" parent="1" source="7Do3n61sv4SYis1TwfqJ-56" target="7Do3n61sv4SYis1TwfqJ-58" edge="1">
          <mxGeometry relative="1" as="geometry" />
        </mxCell>
        <mxCell id="7Do3n61sv4SYis1TwfqJ-123" value="t" style="edgeStyle=orthogonalEdgeStyle;rounded=0;orthogonalLoop=1;jettySize=auto;html=1;" parent="1" source="7Do3n61sv4SYis1TwfqJ-56" target="7Do3n61sv4SYis1TwfqJ-122" edge="1">
          <mxGeometry relative="1" as="geometry" />
        </mxCell>
        <mxCell id="7Do3n61sv4SYis1TwfqJ-56" value="a = 26" style="rhombus;whiteSpace=wrap;html=1;" parent="1" vertex="1">
          <mxGeometry x="4534" y="310" width="80" height="80" as="geometry" />
        </mxCell>
        <mxCell id="7Do3n61sv4SYis1TwfqJ-61" value="f" style="edgeStyle=orthogonalEdgeStyle;rounded=0;orthogonalLoop=1;jettySize=auto;html=1;" parent="1" source="7Do3n61sv4SYis1TwfqJ-58" target="7Do3n61sv4SYis1TwfqJ-60" edge="1">
          <mxGeometry relative="1" as="geometry" />
        </mxCell>
        <mxCell id="7Do3n61sv4SYis1TwfqJ-125" value="t" style="edgeStyle=orthogonalEdgeStyle;rounded=0;orthogonalLoop=1;jettySize=auto;html=1;" parent="1" source="7Do3n61sv4SYis1TwfqJ-58" target="7Do3n61sv4SYis1TwfqJ-124" edge="1">
          <mxGeometry relative="1" as="geometry" />
        </mxCell>
        <mxCell id="7Do3n61sv4SYis1TwfqJ-58" value="a = 27" style="rhombus;whiteSpace=wrap;html=1;" parent="1" vertex="1">
          <mxGeometry x="4694" y="310" width="80" height="80" as="geometry" />
        </mxCell>
        <mxCell id="7Do3n61sv4SYis1TwfqJ-63" value="f" style="edgeStyle=orthogonalEdgeStyle;rounded=0;orthogonalLoop=1;jettySize=auto;html=1;" parent="1" source="7Do3n61sv4SYis1TwfqJ-60" target="7Do3n61sv4SYis1TwfqJ-62" edge="1">
          <mxGeometry relative="1" as="geometry" />
        </mxCell>
        <mxCell id="7Do3n61sv4SYis1TwfqJ-127" value="t" style="edgeStyle=orthogonalEdgeStyle;rounded=0;orthogonalLoop=1;jettySize=auto;html=1;" parent="1" source="7Do3n61sv4SYis1TwfqJ-60" target="7Do3n61sv4SYis1TwfqJ-126" edge="1">
          <mxGeometry relative="1" as="geometry" />
        </mxCell>
        <mxCell id="7Do3n61sv4SYis1TwfqJ-60" value="a = 28" style="rhombus;whiteSpace=wrap;html=1;" parent="1" vertex="1">
          <mxGeometry x="4854" y="310" width="80" height="80" as="geometry" />
        </mxCell>
        <mxCell id="7Do3n61sv4SYis1TwfqJ-67" value="f" style="edgeStyle=orthogonalEdgeStyle;rounded=0;orthogonalLoop=1;jettySize=auto;html=1;" parent="1" source="7Do3n61sv4SYis1TwfqJ-62" target="7Do3n61sv4SYis1TwfqJ-66" edge="1">
          <mxGeometry relative="1" as="geometry" />
        </mxCell>
        <mxCell id="7Do3n61sv4SYis1TwfqJ-129" value="t" style="edgeStyle=orthogonalEdgeStyle;rounded=0;orthogonalLoop=1;jettySize=auto;html=1;" parent="1" source="7Do3n61sv4SYis1TwfqJ-62" target="7Do3n61sv4SYis1TwfqJ-128" edge="1">
          <mxGeometry relative="1" as="geometry" />
        </mxCell>
        <mxCell id="7Do3n61sv4SYis1TwfqJ-62" value="a = 29" style="rhombus;whiteSpace=wrap;html=1;" parent="1" vertex="1">
          <mxGeometry x="5014" y="310" width="80" height="80" as="geometry" />
        </mxCell>
        <mxCell id="7Do3n61sv4SYis1TwfqJ-187" style="edgeStyle=orthogonalEdgeStyle;rounded=0;orthogonalLoop=1;jettySize=auto;html=1;exitX=0.5;exitY=1;exitDx=0;exitDy=0;entryX=1;entryY=0.5;entryDx=0;entryDy=0;" parent="1" source="7Do3n61sv4SYis1TwfqJ-66" target="7Do3n61sv4SYis1TwfqJ-186" edge="1">
          <mxGeometry relative="1" as="geometry" />
        </mxCell>
        <mxCell id="7Do3n61sv4SYis1TwfqJ-66" value="Output Thirty" style="shape=parallelogram;perimeter=parallelogramPerimeter;whiteSpace=wrap;html=1;fixedSize=1;" parent="1" vertex="1">
          <mxGeometry x="5154" y="320" width="120" height="60" as="geometry" />
        </mxCell>
        <mxCell id="7Do3n61sv4SYis1TwfqJ-147" style="edgeStyle=orthogonalEdgeStyle;rounded=0;orthogonalLoop=1;jettySize=auto;html=1;exitX=0.5;exitY=1;exitDx=0;exitDy=0;entryX=0;entryY=0.5;entryDx=0;entryDy=0;" parent="1" source="7Do3n61sv4SYis1TwfqJ-68" target="7Do3n61sv4SYis1TwfqJ-130" edge="1">
          <mxGeometry relative="1" as="geometry" />
        </mxCell>
        <mxCell id="7Do3n61sv4SYis1TwfqJ-68" value="Output Zero" style="shape=parallelogram;perimeter=parallelogramPerimeter;whiteSpace=wrap;html=1;fixedSize=1;" parent="1" vertex="1">
          <mxGeometry x="354" y="480" width="120" height="60" as="geometry" />
        </mxCell>
        <mxCell id="7Do3n61sv4SYis1TwfqJ-148" style="edgeStyle=orthogonalEdgeStyle;rounded=0;orthogonalLoop=1;jettySize=auto;html=1;exitX=0.5;exitY=1;exitDx=0;exitDy=0;entryX=1;entryY=0.5;entryDx=0;entryDy=0;" parent="1" source="7Do3n61sv4SYis1TwfqJ-72" target="7Do3n61sv4SYis1TwfqJ-130" edge="1">
          <mxGeometry relative="1" as="geometry" />
        </mxCell>
        <mxCell id="7Do3n61sv4SYis1TwfqJ-72" value="Output One" style="shape=parallelogram;perimeter=parallelogramPerimeter;whiteSpace=wrap;html=1;fixedSize=1;" parent="1" vertex="1">
          <mxGeometry x="514" y="480" width="120" height="60" as="geometry" />
        </mxCell>
        <mxCell id="7Do3n61sv4SYis1TwfqJ-149" style="edgeStyle=orthogonalEdgeStyle;rounded=0;orthogonalLoop=1;jettySize=auto;html=1;exitX=0.5;exitY=1;exitDx=0;exitDy=0;entryX=0;entryY=0.5;entryDx=0;entryDy=0;" parent="1" source="7Do3n61sv4SYis1TwfqJ-74" target="7Do3n61sv4SYis1TwfqJ-132" edge="1">
          <mxGeometry relative="1" as="geometry" />
        </mxCell>
        <mxCell id="7Do3n61sv4SYis1TwfqJ-74" value="Output Two" style="shape=parallelogram;perimeter=parallelogramPerimeter;whiteSpace=wrap;html=1;fixedSize=1;" parent="1" vertex="1">
          <mxGeometry x="674" y="480" width="120" height="60" as="geometry" />
        </mxCell>
        <mxCell id="7Do3n61sv4SYis1TwfqJ-150" style="edgeStyle=orthogonalEdgeStyle;rounded=0;orthogonalLoop=1;jettySize=auto;html=1;exitX=0.5;exitY=1;exitDx=0;exitDy=0;entryX=1;entryY=0.5;entryDx=0;entryDy=0;" parent="1" source="7Do3n61sv4SYis1TwfqJ-76" target="7Do3n61sv4SYis1TwfqJ-132" edge="1">
          <mxGeometry relative="1" as="geometry" />
        </mxCell>
        <mxCell id="7Do3n61sv4SYis1TwfqJ-76" value="Output Three" style="shape=parallelogram;perimeter=parallelogramPerimeter;whiteSpace=wrap;html=1;fixedSize=1;" parent="1" vertex="1">
          <mxGeometry x="834" y="480" width="120" height="60" as="geometry" />
        </mxCell>
        <mxCell id="7Do3n61sv4SYis1TwfqJ-151" style="edgeStyle=orthogonalEdgeStyle;rounded=0;orthogonalLoop=1;jettySize=auto;html=1;exitX=0.5;exitY=1;exitDx=0;exitDy=0;entryX=0;entryY=0.5;entryDx=0;entryDy=0;" parent="1" source="7Do3n61sv4SYis1TwfqJ-78" target="7Do3n61sv4SYis1TwfqJ-134" edge="1">
          <mxGeometry relative="1" as="geometry" />
        </mxCell>
        <mxCell id="7Do3n61sv4SYis1TwfqJ-78" value="Output Four" style="shape=parallelogram;perimeter=parallelogramPerimeter;whiteSpace=wrap;html=1;fixedSize=1;" parent="1" vertex="1">
          <mxGeometry x="994" y="480" width="120" height="60" as="geometry" />
        </mxCell>
        <mxCell id="7Do3n61sv4SYis1TwfqJ-152" style="edgeStyle=orthogonalEdgeStyle;rounded=0;orthogonalLoop=1;jettySize=auto;html=1;exitX=0.5;exitY=1;exitDx=0;exitDy=0;entryX=1;entryY=0.5;entryDx=0;entryDy=0;" parent="1" source="7Do3n61sv4SYis1TwfqJ-80" target="7Do3n61sv4SYis1TwfqJ-134" edge="1">
          <mxGeometry relative="1" as="geometry" />
        </mxCell>
        <mxCell id="7Do3n61sv4SYis1TwfqJ-80" value="Output Five" style="shape=parallelogram;perimeter=parallelogramPerimeter;whiteSpace=wrap;html=1;fixedSize=1;" parent="1" vertex="1">
          <mxGeometry x="1154" y="480" width="120" height="60" as="geometry" />
        </mxCell>
        <mxCell id="7Do3n61sv4SYis1TwfqJ-153" style="edgeStyle=orthogonalEdgeStyle;rounded=0;orthogonalLoop=1;jettySize=auto;html=1;exitX=0.5;exitY=1;exitDx=0;exitDy=0;entryX=0;entryY=0.5;entryDx=0;entryDy=0;" parent="1" source="7Do3n61sv4SYis1TwfqJ-82" target="7Do3n61sv4SYis1TwfqJ-135" edge="1">
          <mxGeometry relative="1" as="geometry" />
        </mxCell>
        <mxCell id="7Do3n61sv4SYis1TwfqJ-82" value="Output Six" style="shape=parallelogram;perimeter=parallelogramPerimeter;whiteSpace=wrap;html=1;fixedSize=1;" parent="1" vertex="1">
          <mxGeometry x="1314" y="480" width="120" height="60" as="geometry" />
        </mxCell>
        <mxCell id="7Do3n61sv4SYis1TwfqJ-155" style="edgeStyle=orthogonalEdgeStyle;rounded=0;orthogonalLoop=1;jettySize=auto;html=1;exitX=0.5;exitY=1;exitDx=0;exitDy=0;entryX=1;entryY=0.5;entryDx=0;entryDy=0;" parent="1" source="7Do3n61sv4SYis1TwfqJ-84" target="7Do3n61sv4SYis1TwfqJ-135" edge="1">
          <mxGeometry relative="1" as="geometry" />
        </mxCell>
        <mxCell id="7Do3n61sv4SYis1TwfqJ-84" value="Output Seven" style="shape=parallelogram;perimeter=parallelogramPerimeter;whiteSpace=wrap;html=1;fixedSize=1;" parent="1" vertex="1">
          <mxGeometry x="1474" y="480" width="120" height="60" as="geometry" />
        </mxCell>
        <mxCell id="7Do3n61sv4SYis1TwfqJ-156" style="edgeStyle=orthogonalEdgeStyle;rounded=0;orthogonalLoop=1;jettySize=auto;html=1;exitX=0.5;exitY=1;exitDx=0;exitDy=0;entryX=0;entryY=0.5;entryDx=0;entryDy=0;" parent="1" source="7Do3n61sv4SYis1TwfqJ-86" target="7Do3n61sv4SYis1TwfqJ-136" edge="1">
          <mxGeometry relative="1" as="geometry" />
        </mxCell>
        <mxCell id="7Do3n61sv4SYis1TwfqJ-86" value="Output Eight" style="shape=parallelogram;perimeter=parallelogramPerimeter;whiteSpace=wrap;html=1;fixedSize=1;" parent="1" vertex="1">
          <mxGeometry x="1634" y="480" width="120" height="60" as="geometry" />
        </mxCell>
        <mxCell id="7Do3n61sv4SYis1TwfqJ-157" style="edgeStyle=orthogonalEdgeStyle;rounded=0;orthogonalLoop=1;jettySize=auto;html=1;exitX=0.5;exitY=1;exitDx=0;exitDy=0;entryX=1;entryY=0.5;entryDx=0;entryDy=0;" parent="1" source="7Do3n61sv4SYis1TwfqJ-88" target="7Do3n61sv4SYis1TwfqJ-136" edge="1">
          <mxGeometry relative="1" as="geometry" />
        </mxCell>
        <mxCell id="7Do3n61sv4SYis1TwfqJ-88" value="Output Nine" style="shape=parallelogram;perimeter=parallelogramPerimeter;whiteSpace=wrap;html=1;fixedSize=1;" parent="1" vertex="1">
          <mxGeometry x="1794" y="480" width="120" height="60" as="geometry" />
        </mxCell>
        <mxCell id="7Do3n61sv4SYis1TwfqJ-158" style="edgeStyle=orthogonalEdgeStyle;rounded=0;orthogonalLoop=1;jettySize=auto;html=1;exitX=0.5;exitY=1;exitDx=0;exitDy=0;entryX=0;entryY=0.5;entryDx=0;entryDy=0;" parent="1" source="7Do3n61sv4SYis1TwfqJ-90" target="7Do3n61sv4SYis1TwfqJ-137" edge="1">
          <mxGeometry relative="1" as="geometry" />
        </mxCell>
        <mxCell id="7Do3n61sv4SYis1TwfqJ-90" value="Output Ten" style="shape=parallelogram;perimeter=parallelogramPerimeter;whiteSpace=wrap;html=1;fixedSize=1;" parent="1" vertex="1">
          <mxGeometry x="1954" y="480" width="120" height="60" as="geometry" />
        </mxCell>
        <mxCell id="7Do3n61sv4SYis1TwfqJ-159" style="edgeStyle=orthogonalEdgeStyle;rounded=0;orthogonalLoop=1;jettySize=auto;html=1;exitX=0.5;exitY=1;exitDx=0;exitDy=0;entryX=1;entryY=0.5;entryDx=0;entryDy=0;" parent="1" source="7Do3n61sv4SYis1TwfqJ-92" target="7Do3n61sv4SYis1TwfqJ-137" edge="1">
          <mxGeometry relative="1" as="geometry" />
        </mxCell>
        <mxCell id="7Do3n61sv4SYis1TwfqJ-92" value="Output Eleven" style="shape=parallelogram;perimeter=parallelogramPerimeter;whiteSpace=wrap;html=1;fixedSize=1;" parent="1" vertex="1">
          <mxGeometry x="2114" y="480" width="120" height="60" as="geometry" />
        </mxCell>
        <mxCell id="7Do3n61sv4SYis1TwfqJ-160" style="edgeStyle=orthogonalEdgeStyle;rounded=0;orthogonalLoop=1;jettySize=auto;html=1;exitX=0.5;exitY=1;exitDx=0;exitDy=0;entryX=0;entryY=0.5;entryDx=0;entryDy=0;" parent="1" source="7Do3n61sv4SYis1TwfqJ-94" target="7Do3n61sv4SYis1TwfqJ-138" edge="1">
          <mxGeometry relative="1" as="geometry" />
        </mxCell>
        <mxCell id="7Do3n61sv4SYis1TwfqJ-94" value="Output Twelve" style="shape=parallelogram;perimeter=parallelogramPerimeter;whiteSpace=wrap;html=1;fixedSize=1;" parent="1" vertex="1">
          <mxGeometry x="2274" y="480" width="120" height="60" as="geometry" />
        </mxCell>
        <mxCell id="7Do3n61sv4SYis1TwfqJ-162" style="edgeStyle=orthogonalEdgeStyle;rounded=0;orthogonalLoop=1;jettySize=auto;html=1;exitX=0.5;exitY=1;exitDx=0;exitDy=0;entryX=1;entryY=0.5;entryDx=0;entryDy=0;" parent="1" source="7Do3n61sv4SYis1TwfqJ-96" target="7Do3n61sv4SYis1TwfqJ-138" edge="1">
          <mxGeometry relative="1" as="geometry" />
        </mxCell>
        <mxCell id="7Do3n61sv4SYis1TwfqJ-96" value="Output Thirteen" style="shape=parallelogram;perimeter=parallelogramPerimeter;whiteSpace=wrap;html=1;fixedSize=1;" parent="1" vertex="1">
          <mxGeometry x="2434" y="480" width="120" height="60" as="geometry" />
        </mxCell>
        <mxCell id="7Do3n61sv4SYis1TwfqJ-163" style="edgeStyle=orthogonalEdgeStyle;rounded=0;orthogonalLoop=1;jettySize=auto;html=1;exitX=0.5;exitY=1;exitDx=0;exitDy=0;entryX=0;entryY=0.5;entryDx=0;entryDy=0;" parent="1" source="7Do3n61sv4SYis1TwfqJ-98" target="7Do3n61sv4SYis1TwfqJ-139" edge="1">
          <mxGeometry relative="1" as="geometry" />
        </mxCell>
        <mxCell id="7Do3n61sv4SYis1TwfqJ-98" value="Output Fourteen" style="shape=parallelogram;perimeter=parallelogramPerimeter;whiteSpace=wrap;html=1;fixedSize=1;" parent="1" vertex="1">
          <mxGeometry x="2594" y="480" width="120" height="60" as="geometry" />
        </mxCell>
        <mxCell id="7Do3n61sv4SYis1TwfqJ-164" style="edgeStyle=orthogonalEdgeStyle;rounded=0;orthogonalLoop=1;jettySize=auto;html=1;exitX=0.5;exitY=1;exitDx=0;exitDy=0;entryX=1;entryY=0.5;entryDx=0;entryDy=0;" parent="1" source="7Do3n61sv4SYis1TwfqJ-100" target="7Do3n61sv4SYis1TwfqJ-139" edge="1">
          <mxGeometry relative="1" as="geometry" />
        </mxCell>
        <mxCell id="7Do3n61sv4SYis1TwfqJ-100" value="Output Fifteen" style="shape=parallelogram;perimeter=parallelogramPerimeter;whiteSpace=wrap;html=1;fixedSize=1;" parent="1" vertex="1">
          <mxGeometry x="2754" y="480" width="120" height="60" as="geometry" />
        </mxCell>
        <mxCell id="7Do3n61sv4SYis1TwfqJ-165" style="edgeStyle=orthogonalEdgeStyle;rounded=0;orthogonalLoop=1;jettySize=auto;html=1;exitX=0.5;exitY=1;exitDx=0;exitDy=0;entryX=0;entryY=0.5;entryDx=0;entryDy=0;" parent="1" source="7Do3n61sv4SYis1TwfqJ-102" target="7Do3n61sv4SYis1TwfqJ-140" edge="1">
          <mxGeometry relative="1" as="geometry" />
        </mxCell>
        <mxCell id="7Do3n61sv4SYis1TwfqJ-102" value="Output Sixteen" style="shape=parallelogram;perimeter=parallelogramPerimeter;whiteSpace=wrap;html=1;fixedSize=1;" parent="1" vertex="1">
          <mxGeometry x="2914" y="480" width="120" height="60" as="geometry" />
        </mxCell>
        <mxCell id="7Do3n61sv4SYis1TwfqJ-166" style="edgeStyle=orthogonalEdgeStyle;rounded=0;orthogonalLoop=1;jettySize=auto;html=1;exitX=0.5;exitY=1;exitDx=0;exitDy=0;entryX=1;entryY=0.5;entryDx=0;entryDy=0;" parent="1" source="7Do3n61sv4SYis1TwfqJ-104" target="7Do3n61sv4SYis1TwfqJ-140" edge="1">
          <mxGeometry relative="1" as="geometry" />
        </mxCell>
        <mxCell id="7Do3n61sv4SYis1TwfqJ-104" value="Output Seventeen" style="shape=parallelogram;perimeter=parallelogramPerimeter;whiteSpace=wrap;html=1;fixedSize=1;" parent="1" vertex="1">
          <mxGeometry x="3074" y="480" width="120" height="60" as="geometry" />
        </mxCell>
        <mxCell id="7Do3n61sv4SYis1TwfqJ-167" style="edgeStyle=orthogonalEdgeStyle;rounded=0;orthogonalLoop=1;jettySize=auto;html=1;exitX=0.5;exitY=1;exitDx=0;exitDy=0;entryX=0;entryY=0.5;entryDx=0;entryDy=0;" parent="1" source="7Do3n61sv4SYis1TwfqJ-106" target="7Do3n61sv4SYis1TwfqJ-141" edge="1">
          <mxGeometry relative="1" as="geometry" />
        </mxCell>
        <mxCell id="7Do3n61sv4SYis1TwfqJ-106" value="Output Eighteen" style="shape=parallelogram;perimeter=parallelogramPerimeter;whiteSpace=wrap;html=1;fixedSize=1;" parent="1" vertex="1">
          <mxGeometry x="3234" y="480" width="120" height="60" as="geometry" />
        </mxCell>
        <mxCell id="7Do3n61sv4SYis1TwfqJ-168" style="edgeStyle=orthogonalEdgeStyle;rounded=0;orthogonalLoop=1;jettySize=auto;html=1;exitX=0.5;exitY=1;exitDx=0;exitDy=0;entryX=1;entryY=0.5;entryDx=0;entryDy=0;" parent="1" source="7Do3n61sv4SYis1TwfqJ-108" target="7Do3n61sv4SYis1TwfqJ-141" edge="1">
          <mxGeometry relative="1" as="geometry" />
        </mxCell>
        <mxCell id="7Do3n61sv4SYis1TwfqJ-108" value="Output Nineteen" style="shape=parallelogram;perimeter=parallelogramPerimeter;whiteSpace=wrap;html=1;fixedSize=1;" parent="1" vertex="1">
          <mxGeometry x="3394" y="480" width="120" height="60" as="geometry" />
        </mxCell>
        <mxCell id="7Do3n61sv4SYis1TwfqJ-169" style="edgeStyle=orthogonalEdgeStyle;rounded=0;orthogonalLoop=1;jettySize=auto;html=1;exitX=0.5;exitY=1;exitDx=0;exitDy=0;entryX=0;entryY=0.5;entryDx=0;entryDy=0;" parent="1" source="7Do3n61sv4SYis1TwfqJ-110" target="7Do3n61sv4SYis1TwfqJ-142" edge="1">
          <mxGeometry relative="1" as="geometry" />
        </mxCell>
        <mxCell id="7Do3n61sv4SYis1TwfqJ-110" value="Output Twenty" style="shape=parallelogram;perimeter=parallelogramPerimeter;whiteSpace=wrap;html=1;fixedSize=1;" parent="1" vertex="1">
          <mxGeometry x="3554" y="480" width="120" height="60" as="geometry" />
        </mxCell>
        <mxCell id="7Do3n61sv4SYis1TwfqJ-170" style="edgeStyle=orthogonalEdgeStyle;rounded=0;orthogonalLoop=1;jettySize=auto;html=1;exitX=0.5;exitY=1;exitDx=0;exitDy=0;entryX=1;entryY=0.5;entryDx=0;entryDy=0;" parent="1" source="7Do3n61sv4SYis1TwfqJ-112" target="7Do3n61sv4SYis1TwfqJ-142" edge="1">
          <mxGeometry relative="1" as="geometry" />
        </mxCell>
        <mxCell id="7Do3n61sv4SYis1TwfqJ-112" value="Output Twenty-one" style="shape=parallelogram;perimeter=parallelogramPerimeter;whiteSpace=wrap;html=1;fixedSize=1;" parent="1" vertex="1">
          <mxGeometry x="3714" y="480" width="120" height="60" as="geometry" />
        </mxCell>
        <mxCell id="7Do3n61sv4SYis1TwfqJ-171" style="edgeStyle=orthogonalEdgeStyle;rounded=0;orthogonalLoop=1;jettySize=auto;html=1;exitX=0.5;exitY=1;exitDx=0;exitDy=0;entryX=0;entryY=0.5;entryDx=0;entryDy=0;" parent="1" source="7Do3n61sv4SYis1TwfqJ-114" target="7Do3n61sv4SYis1TwfqJ-143" edge="1">
          <mxGeometry relative="1" as="geometry" />
        </mxCell>
        <mxCell id="7Do3n61sv4SYis1TwfqJ-114" value="Output Twenty-two" style="shape=parallelogram;perimeter=parallelogramPerimeter;whiteSpace=wrap;html=1;fixedSize=1;" parent="1" vertex="1">
          <mxGeometry x="3874" y="480" width="120" height="60" as="geometry" />
        </mxCell>
        <mxCell id="7Do3n61sv4SYis1TwfqJ-172" style="edgeStyle=orthogonalEdgeStyle;rounded=0;orthogonalLoop=1;jettySize=auto;html=1;exitX=0.5;exitY=1;exitDx=0;exitDy=0;entryX=1;entryY=0.5;entryDx=0;entryDy=0;" parent="1" source="7Do3n61sv4SYis1TwfqJ-116" target="7Do3n61sv4SYis1TwfqJ-143" edge="1">
          <mxGeometry relative="1" as="geometry" />
        </mxCell>
        <mxCell id="7Do3n61sv4SYis1TwfqJ-116" value="Output Twenty-three" style="shape=parallelogram;perimeter=parallelogramPerimeter;whiteSpace=wrap;html=1;fixedSize=1;" parent="1" vertex="1">
          <mxGeometry x="4026" y="480" width="136" height="60" as="geometry" />
        </mxCell>
        <mxCell id="7Do3n61sv4SYis1TwfqJ-173" style="edgeStyle=orthogonalEdgeStyle;rounded=0;orthogonalLoop=1;jettySize=auto;html=1;exitX=0.5;exitY=1;exitDx=0;exitDy=0;entryX=0;entryY=0.5;entryDx=0;entryDy=0;" parent="1" source="7Do3n61sv4SYis1TwfqJ-118" target="7Do3n61sv4SYis1TwfqJ-144" edge="1">
          <mxGeometry relative="1" as="geometry" />
        </mxCell>
        <mxCell id="7Do3n61sv4SYis1TwfqJ-118" value="Output Twenty-four" style="shape=parallelogram;perimeter=parallelogramPerimeter;whiteSpace=wrap;html=1;fixedSize=1;" parent="1" vertex="1">
          <mxGeometry x="4186" y="480" width="136" height="60" as="geometry" />
        </mxCell>
        <mxCell id="7Do3n61sv4SYis1TwfqJ-174" style="edgeStyle=orthogonalEdgeStyle;rounded=0;orthogonalLoop=1;jettySize=auto;html=1;exitX=0.5;exitY=1;exitDx=0;exitDy=0;entryX=1;entryY=0.5;entryDx=0;entryDy=0;" parent="1" source="7Do3n61sv4SYis1TwfqJ-120" target="7Do3n61sv4SYis1TwfqJ-144" edge="1">
          <mxGeometry relative="1" as="geometry" />
        </mxCell>
        <mxCell id="7Do3n61sv4SYis1TwfqJ-120" value="Output Twenty-five" style="shape=parallelogram;perimeter=parallelogramPerimeter;whiteSpace=wrap;html=1;fixedSize=1;" parent="1" vertex="1">
          <mxGeometry x="4354" y="480" width="120" height="60" as="geometry" />
        </mxCell>
        <mxCell id="7Do3n61sv4SYis1TwfqJ-175" style="edgeStyle=orthogonalEdgeStyle;rounded=0;orthogonalLoop=1;jettySize=auto;html=1;exitX=0.5;exitY=1;exitDx=0;exitDy=0;entryX=0;entryY=0.5;entryDx=0;entryDy=0;" parent="1" source="7Do3n61sv4SYis1TwfqJ-122" target="7Do3n61sv4SYis1TwfqJ-145" edge="1">
          <mxGeometry relative="1" as="geometry" />
        </mxCell>
        <mxCell id="7Do3n61sv4SYis1TwfqJ-122" value="Output Twenty-six" style="shape=parallelogram;perimeter=parallelogramPerimeter;whiteSpace=wrap;html=1;fixedSize=1;" parent="1" vertex="1">
          <mxGeometry x="4514" y="480" width="120" height="60" as="geometry" />
        </mxCell>
        <mxCell id="7Do3n61sv4SYis1TwfqJ-176" style="edgeStyle=orthogonalEdgeStyle;rounded=0;orthogonalLoop=1;jettySize=auto;html=1;exitX=0.5;exitY=1;exitDx=0;exitDy=0;entryX=1;entryY=0.5;entryDx=0;entryDy=0;" parent="1" source="7Do3n61sv4SYis1TwfqJ-124" target="7Do3n61sv4SYis1TwfqJ-145" edge="1">
          <mxGeometry relative="1" as="geometry" />
        </mxCell>
        <mxCell id="7Do3n61sv4SYis1TwfqJ-124" value="Output Twenty-seven" style="shape=parallelogram;perimeter=parallelogramPerimeter;whiteSpace=wrap;html=1;fixedSize=1;" parent="1" vertex="1">
          <mxGeometry x="4661" y="480" width="146" height="60" as="geometry" />
        </mxCell>
        <mxCell id="7Do3n61sv4SYis1TwfqJ-177" style="edgeStyle=orthogonalEdgeStyle;rounded=0;orthogonalLoop=1;jettySize=auto;html=1;exitX=0.5;exitY=1;exitDx=0;exitDy=0;entryX=0;entryY=0.5;entryDx=0;entryDy=0;" parent="1" source="7Do3n61sv4SYis1TwfqJ-126" target="7Do3n61sv4SYis1TwfqJ-146" edge="1">
          <mxGeometry relative="1" as="geometry" />
        </mxCell>
        <mxCell id="7Do3n61sv4SYis1TwfqJ-126" value="Output Twenty-eight" style="shape=parallelogram;perimeter=parallelogramPerimeter;whiteSpace=wrap;html=1;fixedSize=1;" parent="1" vertex="1">
          <mxGeometry x="4826" y="480" width="136" height="60" as="geometry" />
        </mxCell>
        <mxCell id="7Do3n61sv4SYis1TwfqJ-178" style="edgeStyle=orthogonalEdgeStyle;rounded=0;orthogonalLoop=1;jettySize=auto;html=1;exitX=0.5;exitY=1;exitDx=0;exitDy=0;entryX=1;entryY=0.5;entryDx=0;entryDy=0;" parent="1" source="7Do3n61sv4SYis1TwfqJ-128" target="7Do3n61sv4SYis1TwfqJ-146" edge="1">
          <mxGeometry relative="1" as="geometry" />
        </mxCell>
        <mxCell id="7Do3n61sv4SYis1TwfqJ-128" value="Output Twenty-nine" style="shape=parallelogram;perimeter=parallelogramPerimeter;whiteSpace=wrap;html=1;fixedSize=1;" parent="1" vertex="1">
          <mxGeometry x="4991" y="480" width="126" height="60" as="geometry" />
        </mxCell>
        <mxCell id="7Do3n61sv4SYis1TwfqJ-202" style="edgeStyle=orthogonalEdgeStyle;rounded=0;orthogonalLoop=1;jettySize=auto;html=1;exitX=0.5;exitY=1;exitDx=0;exitDy=0;entryX=0;entryY=0.5;entryDx=0;entryDy=0;" parent="1" source="7Do3n61sv4SYis1TwfqJ-130" target="7Do3n61sv4SYis1TwfqJ-179" edge="1">
          <mxGeometry relative="1" as="geometry" />
        </mxCell>
        <mxCell id="7Do3n61sv4SYis1TwfqJ-130" value="" style="ellipse;whiteSpace=wrap;html=1;aspect=fixed;" parent="1" vertex="1">
          <mxGeometry x="490" y="560" width="10" height="10" as="geometry" />
        </mxCell>
        <mxCell id="7Do3n61sv4SYis1TwfqJ-201" style="edgeStyle=orthogonalEdgeStyle;rounded=0;orthogonalLoop=1;jettySize=auto;html=1;exitX=0.5;exitY=1;exitDx=0;exitDy=0;entryX=1;entryY=0.5;entryDx=0;entryDy=0;" parent="1" source="7Do3n61sv4SYis1TwfqJ-132" target="7Do3n61sv4SYis1TwfqJ-179" edge="1">
          <mxGeometry relative="1" as="geometry" />
        </mxCell>
        <mxCell id="7Do3n61sv4SYis1TwfqJ-132" value="" style="ellipse;whiteSpace=wrap;html=1;aspect=fixed;" parent="1" vertex="1">
          <mxGeometry x="800" y="560" width="10" height="10" as="geometry" />
        </mxCell>
        <mxCell id="7Do3n61sv4SYis1TwfqJ-200" style="edgeStyle=orthogonalEdgeStyle;rounded=0;orthogonalLoop=1;jettySize=auto;html=1;exitX=0.5;exitY=1;exitDx=0;exitDy=0;entryX=0;entryY=0.5;entryDx=0;entryDy=0;" parent="1" source="7Do3n61sv4SYis1TwfqJ-134" target="7Do3n61sv4SYis1TwfqJ-180" edge="1">
          <mxGeometry relative="1" as="geometry" />
        </mxCell>
        <mxCell id="7Do3n61sv4SYis1TwfqJ-134" value="" style="ellipse;whiteSpace=wrap;html=1;aspect=fixed;" parent="1" vertex="1">
          <mxGeometry x="1130" y="560" width="10" height="10" as="geometry" />
        </mxCell>
        <mxCell id="7Do3n61sv4SYis1TwfqJ-199" style="edgeStyle=orthogonalEdgeStyle;rounded=0;orthogonalLoop=1;jettySize=auto;html=1;exitX=0.5;exitY=1;exitDx=0;exitDy=0;entryX=1;entryY=0.5;entryDx=0;entryDy=0;" parent="1" source="7Do3n61sv4SYis1TwfqJ-135" target="7Do3n61sv4SYis1TwfqJ-180" edge="1">
          <mxGeometry relative="1" as="geometry" />
        </mxCell>
        <mxCell id="7Do3n61sv4SYis1TwfqJ-135" value="" style="ellipse;whiteSpace=wrap;html=1;aspect=fixed;" parent="1" vertex="1">
          <mxGeometry x="1450" y="560" width="10" height="10" as="geometry" />
        </mxCell>
        <mxCell id="7Do3n61sv4SYis1TwfqJ-198" style="edgeStyle=orthogonalEdgeStyle;rounded=0;orthogonalLoop=1;jettySize=auto;html=1;exitX=0.5;exitY=1;exitDx=0;exitDy=0;entryX=0;entryY=0.5;entryDx=0;entryDy=0;" parent="1" source="7Do3n61sv4SYis1TwfqJ-136" target="7Do3n61sv4SYis1TwfqJ-181" edge="1">
          <mxGeometry relative="1" as="geometry" />
        </mxCell>
        <mxCell id="7Do3n61sv4SYis1TwfqJ-136" value="" style="ellipse;whiteSpace=wrap;html=1;aspect=fixed;" parent="1" vertex="1">
          <mxGeometry x="1770" y="560" width="10" height="10" as="geometry" />
        </mxCell>
        <mxCell id="7Do3n61sv4SYis1TwfqJ-197" style="edgeStyle=orthogonalEdgeStyle;rounded=0;orthogonalLoop=1;jettySize=auto;html=1;exitX=0.5;exitY=1;exitDx=0;exitDy=0;entryX=1;entryY=0.5;entryDx=0;entryDy=0;" parent="1" source="7Do3n61sv4SYis1TwfqJ-137" target="7Do3n61sv4SYis1TwfqJ-181" edge="1">
          <mxGeometry relative="1" as="geometry" />
        </mxCell>
        <mxCell id="7Do3n61sv4SYis1TwfqJ-137" value="" style="ellipse;whiteSpace=wrap;html=1;aspect=fixed;" parent="1" vertex="1">
          <mxGeometry x="2090" y="560" width="10" height="10" as="geometry" />
        </mxCell>
        <mxCell id="7Do3n61sv4SYis1TwfqJ-196" style="edgeStyle=orthogonalEdgeStyle;rounded=0;orthogonalLoop=1;jettySize=auto;html=1;exitX=0.5;exitY=1;exitDx=0;exitDy=0;entryX=0;entryY=0.5;entryDx=0;entryDy=0;" parent="1" source="7Do3n61sv4SYis1TwfqJ-138" target="7Do3n61sv4SYis1TwfqJ-182" edge="1">
          <mxGeometry relative="1" as="geometry" />
        </mxCell>
        <mxCell id="7Do3n61sv4SYis1TwfqJ-138" value="" style="ellipse;whiteSpace=wrap;html=1;aspect=fixed;" parent="1" vertex="1">
          <mxGeometry x="2410" y="560" width="10" height="10" as="geometry" />
        </mxCell>
        <mxCell id="7Do3n61sv4SYis1TwfqJ-195" style="edgeStyle=orthogonalEdgeStyle;rounded=0;orthogonalLoop=1;jettySize=auto;html=1;exitX=0.5;exitY=1;exitDx=0;exitDy=0;entryX=1;entryY=0.5;entryDx=0;entryDy=0;" parent="1" source="7Do3n61sv4SYis1TwfqJ-139" target="7Do3n61sv4SYis1TwfqJ-182" edge="1">
          <mxGeometry relative="1" as="geometry" />
        </mxCell>
        <mxCell id="7Do3n61sv4SYis1TwfqJ-139" value="" style="ellipse;whiteSpace=wrap;html=1;aspect=fixed;" parent="1" vertex="1">
          <mxGeometry x="2730" y="560" width="10" height="10" as="geometry" />
        </mxCell>
        <mxCell id="7Do3n61sv4SYis1TwfqJ-194" style="edgeStyle=orthogonalEdgeStyle;rounded=0;orthogonalLoop=1;jettySize=auto;html=1;exitX=0.5;exitY=1;exitDx=0;exitDy=0;entryX=0;entryY=0.5;entryDx=0;entryDy=0;" parent="1" source="7Do3n61sv4SYis1TwfqJ-140" target="7Do3n61sv4SYis1TwfqJ-183" edge="1">
          <mxGeometry relative="1" as="geometry" />
        </mxCell>
        <mxCell id="7Do3n61sv4SYis1TwfqJ-140" value="" style="ellipse;whiteSpace=wrap;html=1;aspect=fixed;" parent="1" vertex="1">
          <mxGeometry x="3050" y="560" width="10" height="10" as="geometry" />
        </mxCell>
        <mxCell id="7Do3n61sv4SYis1TwfqJ-193" style="edgeStyle=orthogonalEdgeStyle;rounded=0;orthogonalLoop=1;jettySize=auto;html=1;exitX=0.5;exitY=1;exitDx=0;exitDy=0;entryX=1;entryY=0.5;entryDx=0;entryDy=0;" parent="1" source="7Do3n61sv4SYis1TwfqJ-141" target="7Do3n61sv4SYis1TwfqJ-183" edge="1">
          <mxGeometry relative="1" as="geometry" />
        </mxCell>
        <mxCell id="7Do3n61sv4SYis1TwfqJ-141" value="" style="ellipse;whiteSpace=wrap;html=1;aspect=fixed;" parent="1" vertex="1">
          <mxGeometry x="3370" y="560" width="10" height="10" as="geometry" />
        </mxCell>
        <mxCell id="7Do3n61sv4SYis1TwfqJ-192" style="edgeStyle=orthogonalEdgeStyle;rounded=0;orthogonalLoop=1;jettySize=auto;html=1;exitX=0.5;exitY=1;exitDx=0;exitDy=0;entryX=0;entryY=0.5;entryDx=0;entryDy=0;" parent="1" source="7Do3n61sv4SYis1TwfqJ-142" target="7Do3n61sv4SYis1TwfqJ-184" edge="1">
          <mxGeometry relative="1" as="geometry" />
        </mxCell>
        <mxCell id="7Do3n61sv4SYis1TwfqJ-142" value="" style="ellipse;whiteSpace=wrap;html=1;aspect=fixed;" parent="1" vertex="1">
          <mxGeometry x="3690" y="560" width="10" height="10" as="geometry" />
        </mxCell>
        <mxCell id="7Do3n61sv4SYis1TwfqJ-191" style="edgeStyle=orthogonalEdgeStyle;rounded=0;orthogonalLoop=1;jettySize=auto;html=1;exitX=0.5;exitY=1;exitDx=0;exitDy=0;entryX=1;entryY=0.5;entryDx=0;entryDy=0;" parent="1" source="7Do3n61sv4SYis1TwfqJ-143" target="7Do3n61sv4SYis1TwfqJ-184" edge="1">
          <mxGeometry relative="1" as="geometry" />
        </mxCell>
        <mxCell id="7Do3n61sv4SYis1TwfqJ-143" value="" style="ellipse;whiteSpace=wrap;html=1;aspect=fixed;" parent="1" vertex="1">
          <mxGeometry x="4010" y="560" width="10" height="10" as="geometry" />
        </mxCell>
        <mxCell id="7Do3n61sv4SYis1TwfqJ-190" style="edgeStyle=orthogonalEdgeStyle;rounded=0;orthogonalLoop=1;jettySize=auto;html=1;exitX=0.5;exitY=1;exitDx=0;exitDy=0;entryX=0;entryY=0.5;entryDx=0;entryDy=0;" parent="1" source="7Do3n61sv4SYis1TwfqJ-144" target="7Do3n61sv4SYis1TwfqJ-185" edge="1">
          <mxGeometry relative="1" as="geometry" />
        </mxCell>
        <mxCell id="7Do3n61sv4SYis1TwfqJ-144" value="" style="ellipse;whiteSpace=wrap;html=1;aspect=fixed;" parent="1" vertex="1">
          <mxGeometry x="4330" y="560" width="10" height="10" as="geometry" />
        </mxCell>
        <mxCell id="7Do3n61sv4SYis1TwfqJ-189" style="edgeStyle=orthogonalEdgeStyle;rounded=0;orthogonalLoop=1;jettySize=auto;html=1;exitX=0.5;exitY=1;exitDx=0;exitDy=0;entryX=1;entryY=0.5;entryDx=0;entryDy=0;" parent="1" source="7Do3n61sv4SYis1TwfqJ-145" target="7Do3n61sv4SYis1TwfqJ-185" edge="1">
          <mxGeometry relative="1" as="geometry" />
        </mxCell>
        <mxCell id="7Do3n61sv4SYis1TwfqJ-145" value="" style="ellipse;whiteSpace=wrap;html=1;aspect=fixed;" parent="1" vertex="1">
          <mxGeometry x="4640" y="560" width="10" height="10" as="geometry" />
        </mxCell>
        <mxCell id="7Do3n61sv4SYis1TwfqJ-188" style="edgeStyle=orthogonalEdgeStyle;rounded=0;orthogonalLoop=1;jettySize=auto;html=1;exitX=0.5;exitY=1;exitDx=0;exitDy=0;entryX=0;entryY=0.5;entryDx=0;entryDy=0;" parent="1" source="7Do3n61sv4SYis1TwfqJ-146" target="7Do3n61sv4SYis1TwfqJ-186" edge="1">
          <mxGeometry relative="1" as="geometry" />
        </mxCell>
        <mxCell id="7Do3n61sv4SYis1TwfqJ-146" value="" style="ellipse;whiteSpace=wrap;html=1;aspect=fixed;" parent="1" vertex="1">
          <mxGeometry x="4970" y="560" width="10" height="10" as="geometry" />
        </mxCell>
        <mxCell id="7Do3n61sv4SYis1TwfqJ-204" style="edgeStyle=orthogonalEdgeStyle;rounded=0;orthogonalLoop=1;jettySize=auto;html=1;exitX=0.5;exitY=1;exitDx=0;exitDy=0;entryX=0;entryY=0.5;entryDx=0;entryDy=0;" parent="1" source="7Do3n61sv4SYis1TwfqJ-179" target="7Do3n61sv4SYis1TwfqJ-203" edge="1">
          <mxGeometry relative="1" as="geometry" />
        </mxCell>
        <mxCell id="7Do3n61sv4SYis1TwfqJ-179" value="" style="ellipse;whiteSpace=wrap;html=1;aspect=fixed;" parent="1" vertex="1">
          <mxGeometry x="650" y="600" width="10" height="10" as="geometry" />
        </mxCell>
        <mxCell id="7Do3n61sv4SYis1TwfqJ-205" style="edgeStyle=orthogonalEdgeStyle;rounded=0;orthogonalLoop=1;jettySize=auto;html=1;exitX=0.5;exitY=1;exitDx=0;exitDy=0;entryX=1;entryY=0.5;entryDx=0;entryDy=0;" parent="1" source="7Do3n61sv4SYis1TwfqJ-180" target="7Do3n61sv4SYis1TwfqJ-203" edge="1">
          <mxGeometry relative="1" as="geometry" />
        </mxCell>
        <mxCell id="7Do3n61sv4SYis1TwfqJ-180" value="" style="ellipse;whiteSpace=wrap;html=1;aspect=fixed;" parent="1" vertex="1">
          <mxGeometry x="1290" y="600" width="10" height="10" as="geometry" />
        </mxCell>
        <mxCell id="7Do3n61sv4SYis1TwfqJ-207" style="edgeStyle=orthogonalEdgeStyle;rounded=0;orthogonalLoop=1;jettySize=auto;html=1;exitX=0.5;exitY=1;exitDx=0;exitDy=0;entryX=0;entryY=0.5;entryDx=0;entryDy=0;" parent="1" source="7Do3n61sv4SYis1TwfqJ-181" target="7Do3n61sv4SYis1TwfqJ-206" edge="1">
          <mxGeometry relative="1" as="geometry" />
        </mxCell>
        <mxCell id="7Do3n61sv4SYis1TwfqJ-181" value="" style="ellipse;whiteSpace=wrap;html=1;aspect=fixed;" parent="1" vertex="1">
          <mxGeometry x="1930" y="600" width="10" height="10" as="geometry" />
        </mxCell>
        <mxCell id="7Do3n61sv4SYis1TwfqJ-208" style="edgeStyle=orthogonalEdgeStyle;rounded=0;orthogonalLoop=1;jettySize=auto;html=1;exitX=0.5;exitY=1;exitDx=0;exitDy=0;entryX=1;entryY=0.5;entryDx=0;entryDy=0;" parent="1" source="7Do3n61sv4SYis1TwfqJ-182" target="7Do3n61sv4SYis1TwfqJ-206" edge="1">
          <mxGeometry relative="1" as="geometry" />
        </mxCell>
        <mxCell id="7Do3n61sv4SYis1TwfqJ-182" value="" style="ellipse;whiteSpace=wrap;html=1;aspect=fixed;" parent="1" vertex="1">
          <mxGeometry x="2570" y="600" width="10" height="10" as="geometry" />
        </mxCell>
        <mxCell id="7Do3n61sv4SYis1TwfqJ-210" style="edgeStyle=orthogonalEdgeStyle;rounded=0;orthogonalLoop=1;jettySize=auto;html=1;exitX=0.5;exitY=1;exitDx=0;exitDy=0;entryX=0;entryY=0.5;entryDx=0;entryDy=0;" parent="1" source="7Do3n61sv4SYis1TwfqJ-183" target="7Do3n61sv4SYis1TwfqJ-209" edge="1">
          <mxGeometry relative="1" as="geometry" />
        </mxCell>
        <mxCell id="7Do3n61sv4SYis1TwfqJ-183" value="" style="ellipse;whiteSpace=wrap;html=1;aspect=fixed;" parent="1" vertex="1">
          <mxGeometry x="3210" y="600" width="10" height="10" as="geometry" />
        </mxCell>
        <mxCell id="7Do3n61sv4SYis1TwfqJ-211" style="edgeStyle=orthogonalEdgeStyle;rounded=0;orthogonalLoop=1;jettySize=auto;html=1;exitX=0.5;exitY=1;exitDx=0;exitDy=0;entryX=1;entryY=0.5;entryDx=0;entryDy=0;" parent="1" source="7Do3n61sv4SYis1TwfqJ-184" target="7Do3n61sv4SYis1TwfqJ-209" edge="1">
          <mxGeometry relative="1" as="geometry" />
        </mxCell>
        <mxCell id="7Do3n61sv4SYis1TwfqJ-184" value="" style="ellipse;whiteSpace=wrap;html=1;aspect=fixed;" parent="1" vertex="1">
          <mxGeometry x="3850" y="600" width="10" height="10" as="geometry" />
        </mxCell>
        <mxCell id="7Do3n61sv4SYis1TwfqJ-213" style="edgeStyle=orthogonalEdgeStyle;rounded=0;orthogonalLoop=1;jettySize=auto;html=1;exitX=0.5;exitY=1;exitDx=0;exitDy=0;entryX=0;entryY=0.5;entryDx=0;entryDy=0;" parent="1" source="7Do3n61sv4SYis1TwfqJ-185" target="7Do3n61sv4SYis1TwfqJ-212" edge="1">
          <mxGeometry relative="1" as="geometry" />
        </mxCell>
        <mxCell id="7Do3n61sv4SYis1TwfqJ-185" value="" style="ellipse;whiteSpace=wrap;html=1;aspect=fixed;" parent="1" vertex="1">
          <mxGeometry x="4490" y="600" width="10" height="10" as="geometry" />
        </mxCell>
        <mxCell id="7Do3n61sv4SYis1TwfqJ-214" style="edgeStyle=orthogonalEdgeStyle;rounded=0;orthogonalLoop=1;jettySize=auto;html=1;exitX=0.5;exitY=1;exitDx=0;exitDy=0;entryX=1;entryY=0.5;entryDx=0;entryDy=0;" parent="1" source="7Do3n61sv4SYis1TwfqJ-186" target="7Do3n61sv4SYis1TwfqJ-212" edge="1">
          <mxGeometry relative="1" as="geometry" />
        </mxCell>
        <mxCell id="7Do3n61sv4SYis1TwfqJ-186" value="" style="ellipse;whiteSpace=wrap;html=1;aspect=fixed;" parent="1" vertex="1">
          <mxGeometry x="5130" y="600" width="10" height="10" as="geometry" />
        </mxCell>
        <mxCell id="7Do3n61sv4SYis1TwfqJ-217" style="edgeStyle=orthogonalEdgeStyle;rounded=0;orthogonalLoop=1;jettySize=auto;html=1;exitX=0.5;exitY=1;exitDx=0;exitDy=0;entryX=0;entryY=0.5;entryDx=0;entryDy=0;" parent="1" source="7Do3n61sv4SYis1TwfqJ-203" target="7Do3n61sv4SYis1TwfqJ-216" edge="1">
          <mxGeometry relative="1" as="geometry" />
        </mxCell>
        <mxCell id="7Do3n61sv4SYis1TwfqJ-203" value="" style="ellipse;whiteSpace=wrap;html=1;aspect=fixed;" parent="1" vertex="1">
          <mxGeometry x="970" y="650" width="10" height="10" as="geometry" />
        </mxCell>
        <mxCell id="7Do3n61sv4SYis1TwfqJ-218" style="edgeStyle=orthogonalEdgeStyle;rounded=0;orthogonalLoop=1;jettySize=auto;html=1;exitX=0.5;exitY=1;exitDx=0;exitDy=0;entryX=1;entryY=0.5;entryDx=0;entryDy=0;" parent="1" source="7Do3n61sv4SYis1TwfqJ-206" target="7Do3n61sv4SYis1TwfqJ-216" edge="1">
          <mxGeometry relative="1" as="geometry" />
        </mxCell>
        <mxCell id="7Do3n61sv4SYis1TwfqJ-206" value="" style="ellipse;whiteSpace=wrap;html=1;aspect=fixed;" parent="1" vertex="1">
          <mxGeometry x="2250" y="650" width="10" height="10" as="geometry" />
        </mxCell>
        <mxCell id="7Do3n61sv4SYis1TwfqJ-220" style="edgeStyle=orthogonalEdgeStyle;rounded=0;orthogonalLoop=1;jettySize=auto;html=1;exitX=0.5;exitY=1;exitDx=0;exitDy=0;entryX=0;entryY=0.5;entryDx=0;entryDy=0;" parent="1" source="7Do3n61sv4SYis1TwfqJ-209" target="7Do3n61sv4SYis1TwfqJ-219" edge="1">
          <mxGeometry relative="1" as="geometry" />
        </mxCell>
        <mxCell id="7Do3n61sv4SYis1TwfqJ-209" value="" style="ellipse;whiteSpace=wrap;html=1;aspect=fixed;" parent="1" vertex="1">
          <mxGeometry x="3530" y="650" width="10" height="10" as="geometry" />
        </mxCell>
        <mxCell id="7Do3n61sv4SYis1TwfqJ-221" style="edgeStyle=orthogonalEdgeStyle;rounded=0;orthogonalLoop=1;jettySize=auto;html=1;exitX=0.5;exitY=1;exitDx=0;exitDy=0;entryX=1;entryY=0.5;entryDx=0;entryDy=0;" parent="1" source="7Do3n61sv4SYis1TwfqJ-212" target="7Do3n61sv4SYis1TwfqJ-219" edge="1">
          <mxGeometry relative="1" as="geometry" />
        </mxCell>
        <mxCell id="7Do3n61sv4SYis1TwfqJ-212" value="" style="ellipse;whiteSpace=wrap;html=1;aspect=fixed;" parent="1" vertex="1">
          <mxGeometry x="4807" y="650" width="10" height="10" as="geometry" />
        </mxCell>
        <mxCell id="7Do3n61sv4SYis1TwfqJ-223" style="edgeStyle=orthogonalEdgeStyle;rounded=0;orthogonalLoop=1;jettySize=auto;html=1;exitX=0.5;exitY=1;exitDx=0;exitDy=0;entryX=0;entryY=0.5;entryDx=0;entryDy=0;" parent="1" source="7Do3n61sv4SYis1TwfqJ-216" target="7Do3n61sv4SYis1TwfqJ-222" edge="1">
          <mxGeometry relative="1" as="geometry" />
        </mxCell>
        <mxCell id="7Do3n61sv4SYis1TwfqJ-216" value="" style="ellipse;whiteSpace=wrap;html=1;aspect=fixed;" parent="1" vertex="1">
          <mxGeometry x="1610" y="730" width="10" height="10" as="geometry" />
        </mxCell>
        <mxCell id="7Do3n61sv4SYis1TwfqJ-224" style="edgeStyle=orthogonalEdgeStyle;rounded=0;orthogonalLoop=1;jettySize=auto;html=1;exitX=0.5;exitY=1;exitDx=0;exitDy=0;entryX=1;entryY=0.5;entryDx=0;entryDy=0;" parent="1" source="7Do3n61sv4SYis1TwfqJ-219" target="7Do3n61sv4SYis1TwfqJ-222" edge="1">
          <mxGeometry relative="1" as="geometry" />
        </mxCell>
        <mxCell id="7Do3n61sv4SYis1TwfqJ-219" value="" style="ellipse;whiteSpace=wrap;html=1;aspect=fixed;" parent="1" vertex="1">
          <mxGeometry x="4170" y="730" width="10" height="10" as="geometry" />
        </mxCell>
        <mxCell id="7Do3n61sv4SYis1TwfqJ-226" value="" style="edgeStyle=orthogonalEdgeStyle;rounded=0;orthogonalLoop=1;jettySize=auto;html=1;" parent="1" source="7Do3n61sv4SYis1TwfqJ-222" target="7Do3n61sv4SYis1TwfqJ-225" edge="1">
          <mxGeometry relative="1" as="geometry" />
        </mxCell>
        <mxCell id="7Do3n61sv4SYis1TwfqJ-222" value="" style="ellipse;whiteSpace=wrap;html=1;aspect=fixed;" parent="1" vertex="1">
          <mxGeometry x="2890" y="810" width="10" height="10" as="geometry" />
        </mxCell>
        <mxCell id="7Do3n61sv4SYis1TwfqJ-225" value="End" style="ellipse;whiteSpace=wrap;html=1;" parent="1" vertex="1">
          <mxGeometry x="2835" y="920" width="120" height="80" as="geometry" />
        </mxCell>
      </root>
    </mxGraphModel>
  </diagram>
</mxfile>
